<?xml version="1.0" encoding="UTF-8" standalone="no"?>
<svg
   width="210mm"
   height="297mm"
   viewBox="0 0 210 297"
   version="1.1"
   id="svg1"
   xml:space="preserve"
   xmlns="http://www.w3.org/2000/svg"
   xmlns:svg="http://www.w3.org/2000/svg">
  <defs id="defs1">
    <mask id="cube-cutout">
      <path
         style="fill:#ffffff;stroke-width:0.264583"
         d="m 101.27586,64.293104 56.89655,32.810343 V 161.5862 L 101.46552,194.01724 44.568964,161.5862 44.75862,96.534482 Z" />
      
      <path
         style="fill:#000000;stroke-width:0.264583"
         d="m 49.025862,107.06034 v 51.58621 l 46.086207,25.69828 v -20.29311 l -7.681037,-4.36207 0.189656,11 L 56.61207,154 56.51724,142.52586 87.620688,159.68965 87.431032,149.5431 56.61207,133.0431 v -12.51724 l 31.008618,16.87931 -0.189656,12.42241 7.586208,4.07759 0.09483,-21.81034 z" />
      <path
         style="fill:#000000;stroke-width:0.264583"
         d="m 104.78448,133.61207 45.61207,-25.41379 0.47414,21.05172 -8.06035,4.26724 v -11.56897 l -30.62931,16.87931 v 11.75863 L 143,133.23276 l -0.0948,10.05172 -30.81896,16.78448 c 0,0 0.18965,13.18104 -0.0948,13.18104 -0.28449,0 -0.28449,0 -0.28449,0 l 30.9138,-17.06897 v -12.70689 l 7.68103,-4.26725 0.18966,19.9138 -45.61207,26.83621 z" />
      <path
         style="fill:#000000;stroke-width:0.264583"
         d="m 136.38627,98.970564 c 6.97353,-4.023193 6.97353,-4.023193 6.97353,-4.023193 L 101.38448,70.405889 61.823075,93.606307 69.869465,98.03182 101.65269,80.195662 Z" />
      <path
         style="fill:#000000;stroke-width:0.264583"
         d="m 104.33482,95.617905 6.30301,2.145702 -6.1689,2.950343 -2.54802,5.76658 -2.548026,-5.76658 -6.571215,-2.950343 6.437109,-2.548023 2.413912,-5.498364 z" />
    </mask>
  </defs>
  
  <g id="layer1">
    <path
       style="fill:#ffffff;stroke-width:0.264583"
       mask="url(#cube-cutout)"
       d="m 101.27586,64.293104 56.89655,32.810343 V 161.5862 L 101.46552,194.01724 44.568964,161.5862 44.75862,96.534482 Z"
       id="path84-masked" />
  </g>
</svg>
